<?xml version="1.0" encoding="UTF-8" standalone="no"?>
<!-- Created with Inkscape (http://www.inkscape.org/) -->

<svg
   version="1.1"
   id="svg1"
   width="1299.7155"
   height="964.66699"
   viewBox="0 0 1299.7155 964.66703"
   sodipodi:docname="Gemini_Generated_Image_369yez369yez369y.png"
   xmlns:inkscape="http://www.inkscape.org/namespaces/inkscape"
   xmlns:sodipodi="http://sodipodi.sourceforge.net/DTD/sodipodi-0.dtd"
   xmlns="http://www.w3.org/2000/svg"
   xmlns:svg="http://www.w3.org/2000/svg">
  <defs
     id="defs1" />
  <sodipodi:namedview
     id="namedview1"
     pagecolor="#ffffff"
     bordercolor="#000000"
     borderopacity="0.25"
     inkscape:showpageshadow="2"
     inkscape:pageopacity="0.0"
     inkscape:pagecheckerboard="0"
     inkscape:deskcolor="#d1d1d1"
     inkscape:zoom="0.24528195"
     inkscape:cx="756.27254"
     inkscape:cy="587.07949"
     inkscape:window-width="1408"
     inkscape:window-height="921"
     inkscape:window-x="0"
     inkscape:window-y="33"
     inkscape:window-maximized="0"
     inkscape:current-layer="g1"
     inkscape:export-bgcolor="#ffffff00">
    <inkscape:page
       x="0"
       y="0"
       width="1299.7155"
       height="964.66705"
       id="page2"
       margin="0"
       bleed="0" />
  </sodipodi:namedview>
  <g
     inkscape:groupmode="layer"
     inkscape:label="Image"
     id="g1"
     transform="translate(-18.35053,-196.13853)">
    <path
       style="fill:#000000"
       d="m 653.99996,1160.528 c -21.51002,-3.1869 -38.08569,-9.6923 -50.67079,-19.8865 -14.12494,-11.4415 -22.63379,-23.2183 -26.47399,-36.6416 -6.80956,-23.8026 -6.32276,-22.7999 -16.03199,-33.0212 -10.65536,-11.2173 -24.95632,-21.063 -48.03295,-33.069 -26.97034,-14.0318 -48.84063,-22.3759 -85.45693,-32.604 -30.60842,-8.54998 -69.77325,-16.80491 -71.35514,-15.03985 -2.33737,2.60803 -14.7239,31.71295 -18.35946,43.13965 -6.7726,21.2865 -8.64433,32.0465 -8.0685,46.3831 0.4454,11.0893 1.03523,13.8385 4.08576,19.0438 8.05168,13.7392 25.3601,20.8273 56.73697,23.2349 l 12.37297,0.9495 -0.37297,16.097 -0.37296,16.097 -37.33334,-0.6054 c -49.62342,-0.8048 -171.91832,-0.7706 -219.33332,0.061 l -37.99999,0.6667 v -16 -16 l 14.66666,-1.601 c 30.14957,-3.2912 51.20172,-10.1975 72.77765,-23.8753 25.51012,-16.1719 48.53574,-42.5615 70.25912,-80.5237 9.65779,-16.8773 19.73745,-37.02493 18.90219,-37.7825 -1.13925,-1.03329 -59.23333,-4.9561 -95.83294,-6.47113 -35.03104,-1.4501 -63.37039,-0.94868 -138.77268,2.45537 -15.93854,0.71955 -16.87054,0.61499 -21.333332,-2.39327 -10.768978,-7.2591 -12.871252,-21.8619 -4.547319,-31.58655 7.012644,-8.19269 11.489995,-8.80028 80.225171,-10.88667 78.38971,-2.37944 152.6545,1.22675 220.32213,10.69853 88.37364,12.37011 156.49241,31.4654 208.66665,58.49417 26.89392,13.93235 39.48871,22.83245 56.71217,40.07555 17.4808,17.5008 22.45451,25.508 26.41822,42.5306 3.01291,12.9393 7.21787,19.8093 15.69426,25.6412 21.12527,14.5346 58.74193,13.1719 76.86958,-2.7847 6.83111,-6.013 9.77759,-11.46 11.66198,-21.5589 3.92421,-21.0306 24.76825,-46.7614 53.58371,-66.1461 64.30236,-43.25717 172.49528,-72.92825 304.39335,-83.4775 24.1592,-1.93225 35.892,-2.50514 86,-4.19914 23.2832,-0.78713 98.8445,1.23089 124.5558,3.32651 17.0688,1.39122 21.8671,3.19785 25.9229,9.76042 6.4424,10.42389 3.9453,24.48599 -5.388,30.34216 -3.9732,2.49298 -5.9187,2.71369 -19.0907,2.16576 -83.9842,-3.49355 -104.1083,-3.83401 -141.9162,-2.40092 -48.3183,1.83147 -96.0838,5.56171 -96.0838,7.50364 0,2.19745 7.6386,17.48005 15.6746,31.36007 40.9844,70.7905 77.5658,99.5481 138.0637,108.5359 7.8883,1.172 16.4428,2.1308 19.0098,2.1308 h 4.6673 l -0.3743,16.2234 -0.3744,16.2235 -42.6667,-0.5568 c -54.3695,-0.7095 -173.1212,-0.7202 -202.66663,-0.018 l -22.66666,0.5385 -0.37451,-14.6052 -0.37451,-14.6053 4.49826,-2.145 c 10.64575,-5.0766 11.70414,-22.8427 3.12445,-52.4464 -7.34964,-25.3596 -28.27647,-72.60839 -32.15873,-72.60839 -2.01285,0 -6.29077,1.08416 -31.38163,7.95309 -52.7209,14.433 -101.75935,38.1629 -125.05763,60.5158 -10.66622,10.2334 -14.17673,16.1845 -17.02692,28.8644 -3.78767,16.8507 -12.08686,30.1113 -26.5821,42.4737 -16.65571,14.2049 -36.62655,21.3413 -62,22.1552 -8.43333,0.2705 -17.13333,0.2251 -19.33333,-0.1008 z m -5.2e-4,-67.7093 c -5.69893,-2.4837 -6.50753,-3.7766 -14.34621,-22.9382 -11.66678,-28.5194 -25.33966,-47.5158 -49.6705,-69.0095 -23.20434,-20.49858 -59.26269,-41.97335 -93.02516,-55.4017 -69.58286,-27.67521 -144.40405,-43.37631 -245.62425,-51.54382 -35.99369,-2.90435 -129.86902,-4.01934 -168.445763,-2.00069 -17.11184,0.89543 -31.321388,1.41911 -31.576772,1.16372 -0.255384,-0.25538 4.074766,-8.55479 9.622557,-18.44311 29.622132,-52.79821 55.659708,-99.44579 68.085688,-121.97878 7.68363,-13.93333 18.04926,-32.53333 23.03473,-41.33333 8.50422,-15.01104 43.44185,-77.80557 52.29974,-93.99999 2.20611,-4.03334 8.04155,-14.53334 12.96763,-23.33334 4.92607,-8.8 10.94096,-19.6 13.36641,-23.99999 2.42545,-4.4 8.69158,-15.5 13.92473,-24.66667 5.23316,-9.16667 16.37866,-29.43544 24.76778,-45.04171 8.38912,-15.60628 16.46052,-29.82369 17.93644,-31.59425 2.37883,-2.85372 4.50002,-3.41211 18.68349,-4.9183 23.83907,-2.53155 81.1461,-2.21156 104.18396,0.58174 28.06796,3.4032 77.81603,13.55761 77.81603,15.88355 0,0.59274 -2.17083,5.73024 -4.82406,11.41667 -2.65324,5.68643 -6.54715,14.13133 -8.65314,18.76645 -3.01731,6.64084 -4.32662,8.27115 -6.17594,7.69011 -5.62955,-1.76876 -36.59424,-7.61104 -54.01945,-10.19216 -21.07926,-3.12237 -78.64394,-5.02565 -91.59482,-3.02842 l -7.26743,1.12075 -6.14034,10.65778 c -3.37719,5.86179 -8.26266,14.55779 -10.85661,19.32446 -2.59395,4.76666 -10.42235,18.86666 -17.39645,31.33333 -15.35509,27.44826 -17.69647,31.68214 -25.06975,45.33333 -3.1687,5.86667 -11.31803,20.56666 -18.10963,32.66666 -6.79159,12.1 -18.30401,32.8 -25.58315,46 -20.86471,37.83611 -46.6395,84.235 -54.00737,97.22221 -13.02843,22.96498 -31.63517,57.29183 -31.63517,58.36249 0,0.59508 15.75,1.09015 35,1.10017 19.25,0.01 39.79999,0.30799 45.66666,0.66216 5.86667,0.35417 21.16667,1.27622 34,2.049 24.59286,1.4809 61.54042,5.23801 85.82997,8.72784 8.67385,1.24623 14.98241,1.59706 15.70602,0.87345 0.66516,-0.66515 7.25843,-14.36166 14.65171,-30.43668 7.39329,-16.07502 17.64299,-38.22731 22.77711,-49.22731 5.13413,-11 12.48301,-26.9 16.33084,-35.33333 3.84784,-8.43333 10.68043,-22.96896 15.18354,-32.30139 4.5031,-9.33243 8.18746,-17.22697 8.18746,-17.54343 0,-0.31646 2.77446,-6.48084 6.16546,-13.69861 3.391,-7.21778 10.5096,-22.42323 15.81912,-33.7899 9.9833,-21.37234 38.48405,-82.26546 43.99626,-93.99999 1.7224,-3.66667 6.83898,-14.46667 11.3702,-24 4.53121,-9.53334 10.81195,-23.03333 13.95719,-30 3.14525,-6.96667 8.48758,-18.55274 11.87186,-25.74682 3.38428,-7.19409 6.15324,-13.3558 6.15324,-13.6927 0,-0.33689 3.05516,-6.75082 6.78925,-14.25317 3.73409,-7.50235 12.36723,-25.94064 19.18475,-40.97397 6.81753,-15.03333 15.83124,-34.53333 20.03048,-43.33333 4.19924,-8.8 10.79636,-22.9 14.66027,-31.33333 7.99653,-17.45315 9.57763,-20.8802 31.98753,-69.33333 8.98804,-19.43333 19.37026,-41.93333 23.07159,-50 l 6.72969,-14.66667 16.79102,-0.3733 c 16.40327,-0.36468 16.81845,-0.3031 17.97881,2.66667 0.65329,1.67198 3.70655,8.43997 6.78503,15.03997 17.72896,38.00936 21.81098,46.88921 25.87419,56.28564 2.46893,5.70956 6.59725,14.88102 9.17405,20.38102 6.47578,13.82209 24.88541,54.21752 34.93972,76.66666 4.59814,10.26667 11.48585,25.26667 15.30602,33.33333 3.82017,8.06667 12.0462,25.76667 18.28008,39.33333 6.23388,13.56667 15.71435,33.96667 21.06772,45.33333 5.35338,11.36667 13.93791,29.96667 19.07674,41.33333 5.13882,11.36667 12.76666,27.86667 16.95074,36.66667 4.18409,8.8 12.58659,26.8 18.67224,40 11.14113,24.16554 18.68097,40.33667 27.97519,59.99999 2.77298,5.86667 8.78884,18.76667 13.36856,28.66667 4.57973,9.9 15.33475,33 23.90005,51.33333 8.5653,18.33333 17.168,36.93333 19.1171,41.33333 1.9491,4.4 5.74685,12.25571 8.43944,17.45713 5.66351,10.94051 14.79134,31.39892 14.23119,31.89667 -0.20981,0.18644 -6.68148,1.36334 -14.38148,2.61532 -22.62675,3.67901 -49.97885,9.67408 -70.15746,15.37722 -10.35328,2.92618 -19.70684,5.32032 -20.7857,5.32032 -1.90032,0 -4.0005,-4.35437 -34.40516,-71.33333 -5.99206,-13.2 -11.51793,-24.7554 -12.27972,-25.67868 -1.08727,-1.31775 -16.0401,-1.60443 -69.54517,-1.33333 l -68.1601,0.34535 -0.34054,118.33332 c -0.1873,65.08333 -0.0356,118.33333 0.33715,118.33333 0.37273,0 5.02597,-4.58748 10.34054,-10.19439 25.71943,-27.13424 62.51126,-52.33393 104.69969,-71.71158 65.29593,-29.9912 159.69879,-52.7659 251.6298,-60.70571 41.8392,-3.61353 55.5021,-4.27745 103,-5.00508 28.05,-0.42971 51,-0.96532 51,-1.19025 0,-0.22493 -1.879,-3.58537 -4.1755,-7.46764 -2.2966,-3.88227 -8.2032,-14.55867 -13.1259,-23.72534 -11.47,-21.35868 -39.9977,-72.59136 -78.6982,-141.33332 -12.5539,-22.29903 -30.6354,-55.00043 -58.9789,-106.66666 -9.8563,-17.96667 -21.6921,-39.34753 -26.3019,-47.51302 l -8.3813,-14.84635 -7.6907,-0.87011 c -9.3354,-1.05618 -49.56962,-1.1089 -60.64759,-0.0795 -25.49722,2.36934 -37.14579,3.98501 -59.33333,8.22958 -13.56667,2.59536 -25.44771,4.79996 -26.40231,4.8991 -2.12784,0.221 -19.56731,-36.41491 -18.02015,-37.85577 2.91091,-2.71089 47.70111,-11.81119 76.42246,-15.52722 22.92956,-2.96668 80.84122,-3.28816 105.67132,-0.5866 19.4678,2.11813 16.6224,-0.0647 28.0036,21.48319 5.8818,11.13588 17.7111,32.83593 23.6222,43.33333 1.6518,2.93334 7.6662,13.73334 13.3653,24 5.699,10.26667 23.7066,42.66667 40.0168,72 16.3102,29.33333 31.7862,57.23333 34.391,61.99999 2.6048,4.76667 11.4416,20.66667 19.6371,35.33334 8.1956,14.66666 21.6976,38.96666 30.0045,53.99999 8.3069,15.03334 23.095,41.33472 32.8625,58.44753 9.7674,17.11281 17.759,31.39462 17.759,31.73736 0,0.34273 3.3192,6.37212 7.376,13.39865 4.0568,7.02653 7.0871,13.06444 6.734,13.41757 -0.3532,0.35314 -13.1224,-0.0295 -28.376,-0.85038 -34.0831,-1.83411 -106.9638,-1.91267 -141.0673,-0.15205 -61.2657,3.16287 -114.3657,9.64656 -164.66669,20.10633 -86.19175,17.92305 -156.07449,47.62146 -200.66666,85.27831 -27.66347,23.36106 -45.24765,48.00776 -56.0891,78.61666 -4.02926,11.376 -6.13396,14.2826 -12.2014,16.8507 -5.41182,2.2906 -22.42596,2.271 -27.71001,-0.032 z m -7.99974,-331.18473 -0.7336,-3.03264 -86.9664,0.21523 c -47.83152,0.11838 -89.6664,0.48379 -92.9664,0.81202 l -5.99999,0.59679 -5.9451,12.88729 c -12.00597,26.02557 -33.51884,74.2592 -36.01159,80.74095 -0.595,1.54715 -2.69788,6.33328 -4.67307,10.63583 -1.97519,4.30255 -3.09153,8.27589 -2.48075,8.82964 0.61078,0.55375 5.61051,2.04765 11.11051,3.31978 26.89811,6.22143 69.07619,19.83002 93.33333,30.11364 50.54618,21.42864 88.61285,46.03933 119.33332,77.15081 l 12,12.15273 0.36667,-115.69471 c 0.20167,-63.63209 0.0366,-117.0594 -0.36693,-118.72736 z m 147.93372,-77.3161 c -5.66447,-12.27485 -14.7985,-32.51791 -20.29785,-44.98458 -20.87905,-47.33142 -29.20862,-65.19099 -30.62475,-65.66304 -3.90105,-1.30035 -36.13481,30.41115 -47.11821,46.35479 l -6.55932,9.52158 v 39.21235 39.21236 l 57,0.34764 c 31.35,0.19121 57.20231,-0.10929 57.44958,-0.66777 0.24727,-0.55848 -4.18498,-11.05848 -9.84945,-23.33333 z M 646.66663,668.95029 v -39.04968 l -6.91101,-10.42131 c -12.21677,-18.42206 -34.41447,-39.27912 -58.32416,-54.80167 -17.19413,-11.16271 -26.6027,-16.08135 -27.88062,-14.57554 -0.57468,0.67717 -3.3501,6.33121 -6.16761,12.56454 -2.8175,6.23334 -6.77618,14.93333 -8.79707,19.33333 -4.25452,9.26321 -21.57462,48.17251 -32.64363,73.33333 -4.194,9.53334 -9.42594,21.23334 -11.62653,26 -2.2006,4.76667 -5.68791,12.71667 -7.7496,17.66667 l -3.74852,9 h 81.92437 81.92438 z m 42.97455,-106.3767 c 9.61192,-9.50476 27.53863,-24.11671 34.07624,-27.77534 1.92736,-1.07861 1.59616,-2.5396 -2.94859,-13.00669 -5.66279,-13.04206 -44.34918,-99.53042 -49.70637,-111.12492 -1.86359,-4.03333 -6.86812,-15.13333 -11.12119,-24.66666 -4.25307,-9.53334 -9.79048,-21.74363 -12.30536,-27.134 l -4.57251,-9.80066 -2.11112,5.134 c -1.16111,2.82369 -5.07481,11.73399 -8.69711,19.80066 -3.62229,8.06666 -11.79572,26.36666 -18.16317,40.66666 -6.36746,14.3 -12.81686,28.7 -14.33201,32 -1.51515,3.3 -5.91718,13.2 -9.7823,22 -3.86513,8.8 -9.4913,21.30974 -12.50261,27.79942 -3.01131,6.48968 -5.47511,12.21469 -5.47511,12.72224 0,0.50755 3.44999,2.60854 7.66666,4.66886 25.85833,12.63474 65.08211,43.76248 82.90307,65.79134 l 5.64821,6.98186 5.19892,-6.57712 c 2.8594,-3.61742 10.16036,-11.48326 16.22435,-17.47965 z"
       id="path1"
       inkscape:export-filename="path1.svg"
       inkscape:export-xdpi="96"
       inkscape:export-ydpi="96" />
  </g>
</svg>
